<svg id="Layer_1" data-name="Layer 1" xmlns="http://www.w3.org/2000/svg" viewBox="0 0 1550 1550"><defs><style>.cls-1{fill:#ffe820;}.cls-2,.cls-4,.cls-5,.cls-6,.cls-7,.cls-8{fill:none;stroke-miterlimit:10;}.cls-2,.cls-8{stroke:#000;}.cls-2,.cls-4,.cls-5,.cls-6{stroke-width:10px;}.cls-3{fill:#fff;}.cls-4{stroke:#01a455;}.cls-5{stroke:#d5302c;}.cls-6{stroke:#2f60ad;}.cls-7{stroke:#ffe820;}.cls-7,.cls-8{stroke-linecap:round;stroke-width:15px;stroke-dasharray:0 25;}</style></defs><g id="SAGELOGOBASEW"><g id="Octo"><polygon id="Yellow" class="cls-1" points="854.42 249 446.5 320.93 208.92 660.24 280.84 1068.16 620.15 1305.74 1028.07 1233.81 1265.65 894.51 1193.72 486.59 854.42 249"/><g id="Outline"><path class="cls-2" d="M856.1,241.41c-3.53-.79-3.51.18-7.08.81s-3.56.69-7.13,1.31-3.61.4-7.17,1-3.58.58-7.15,1.21-3.55.73-7.12,1.36-3.51.93-7.08,1.56-3.54.77-7.11,1.4-3.52.93-7.09,1.56-3.7-.12-7.26.5-3.57.66-7.14,1.29-3.56.65-7.13,1.28-3.56.68-7.13,1.31-3.53.86-7.09,1.49-3.66.13-7.23.76-3.59.53-7.16,1.16-3.55.73-7.11,1.36-3.53.9-7.09,1.52-3.51,1-7.08,1.6-3.53.85-7.1,1.48-3.7-.12-7.27.51-3.57.6-7.14,1.23-3.45,1.33-7,2-3.67,0-7.24.66-3.51,1-7.08,1.62-3.59.51-7.15,1.14-3.51,1-7.08,1.59-3.65.2-7.22.83-3.64.22-7.21.85-3.5,1-7.07,1.65-3.49,1.08-7,1.71-3.55.75-7.12,1.38-3.57.58-7.14,1.21-3.58.57-7.15,1.2-3.65.17-7.21.8-3.61.42-7.18,1.05-3.56.69-7.13,1.32-3.44,1.34-7,2-3.63.25-7.2.88-3.56.67-7.13,1.3-3.64.26-7.21.89-3.44,1.32-7,2-3.65.17-7.22.8-3.6.45-7.17,1.08-3.58.59-7.15,1.22-3.52.93-7.09,1.56-3.62.34-7.19,1-3.61.41-7.18,1-3.43,1.44-7,2.07-3.67,0-7.25.67-3.58.54-7.15,1.17-3.45,1.34-7,2-3.66.13-7.23.76-3.53.81-7.11,1.44-3.62.31-7.2.94-3.43,1.39-7,2-3.64.27-7.21.9-3.56.69-7.14,1.32-3.94-.61-7,1.34-2.63,2.43-4.71,5.4-1.27,3.53-3.34,6.5-2.25,2.85-4.33,5.82-2.44,2.71-4.52,5.68-2.26,2.84-4.33,5.81-1.65,3.27-3.72,6.24-1.82,3.15-3.9,6.12-2.28,2.83-4.36,5.8-2,3-4,6-2.13,2.93-4.21,5.89-2.45,2.71-4.53,5.68-1.65,3.27-3.72,6.24-2.22,2.87-4.3,5.84-2.35,2.77-4.43,5.74-2,3-4.06,6S378,406.33,376,409.3s-2.62,2.59-4.69,5.56-2,3-4.11,6-2.35,2.78-4.43,5.75-2,3-4.11,6-1.75,3.19-3.83,6.16-2.36,2.77-4.44,5.74-1.78,3.18-3.86,6.14-1.75,3.2-3.83,6.17-2.75,2.5-4.82,5.47-2,3-4.09,6-1.52,3.36-3.6,6.32-2.61,2.6-4.69,5.56-2.21,2.88-4.29,5.85-1.73,3.21-3.81,6.18-2.22,2.86-4.3,5.83-1.9,3.09-4,6.06-2,3.05-4,6-1.9,3.09-4,6.06-2,3-4.09,6-2.39,2.75-4.47,5.72-2.49,2.68-4.57,5.65l-4.15,5.94c-2.08,3-1.93,3.07-4,6s-1.87,3.11-3.95,6.08-1.88,3.11-4,6.08-2.37,2.77-4.45,5.74-1.84,3.13-3.92,6.1-2.16,2.92-4.24,5.89-2.29,2.82-4.37,5.79-1.77,3.18-3.85,6.15-2.28,2.84-4.36,5.81-2.37,2.77-4.45,5.74-1.69,3.23-3.77,6.2-2.17,2.9-4.25,5.87L230,616.81c-2.08,3-2.27,2.84-4.35,5.81s-1.47,3.4-3.55,6.37-2.3,2.82-4.38,5.79-2.37,2.76-4.45,5.73-2.34,2.79-4.42,5.77-2.06,3-4.14,6-3.47,2.58-4.26,6.13.64,3.76,1.27,7.33.91,3.52,1.54,7.09,1.36,3.44,2,7,.05,3.67.68,7.23,1.19,3.47,1.81,7-.1,3.7.53,7.27,1.3,3.45,1.93,7,.59,3.57,1.22,7.14.53,3.58,1.15,7.15-.07,3.7.56,7.26.69,3.56,1.32,7.13,1,3.5,1.63,7.07.07,3.67.7,7.24,1.07,3.49,1.7,7.06.44,3.6,1.07,7.17.9,3.52,1.53,7.09.18,3.64.81,7.21,1.52,3.41,2.15,7-.05,3.69.58,7.26,1.14,3.48,1.76,7,.82,3.54,1.45,7.1.32,3.63.95,7.2.73,3.55,1.36,7.12.55,3.58,1.18,7.15.77,3.54,1.4,7.11.71,3.56,1.34,7.13-.22,3.72.4,7.29,1.48,3.41,2.11,7,.14,3.66.76,7.23.43,3.6,1.06,7.17,1.15,3.48,1.78,7,.82,3.53,1.45,7.1-.08,3.7.55,7.27,1.36,3.43,2,7,.13,3.66.76,7.23.2,3.64.83,7.21,1.52,3.41,2.15,7,.66,3.56,1.29,7.13.21,3.65.84,7.21.18,3.65.81,7.22,1.09,3.49,1.71,7.06.88,3.53,1.51,7.1.09,3.66.71,7.23.92,3.52,1.54,7.09.13,3.66.76,7.23,1.29,3.46,1.92,7,.75,3.55,1.38,7.12.12,3.66.75,7.23.35,3.62,1,7.19.72,3.55,1.35,7.12,1.25,3.46,1.88,7,.41,3.61,1,7.18.83,3.54,1.46,7.11.1,3.67.73,7.24.51,3.59,1.14,7.16,1.11,3.48,1.74,7.06,1.07,3.49,1.7,7.07-.79,3.94,1.16,7,2.65,2.26,5.62,4.34,2.66,2.52,5.63,4.6,3.22,1.71,6.19,3.79,3.23,1.69,6.2,3.77,2.65,2.53,5.62,4.6,3.25,1.69,6.22,3.76,2.95,2.11,5.92,4.19,2.92,2.14,5.88,4.22,3,2.07,5.94,4.15,2.64,2.55,5.61,4.63,2.88,2.2,5.85,4.28,3.51,1.31,6.47,3.39,2.48,2.78,5.45,4.86,3.16,1.8,6.13,3.88,3.05,2,6,4,2.86,2.24,5.83,4.31,3.15,1.83,6.12,3.9,2.58,2.63,5.55,4.71,2.94,2.12,5.91,4.19,3,2,6,4.09,3.35,1.53,6.32,3.61,3.09,1.91,6.06,4,2.55,2.67,5.52,4.75,3.16,1.8,6.13,3.88,2.85,2.24,5.82,4.32,2.88,2.2,5.85,4.28,3,2,6,4.09,2.95,2.11,5.92,4.18,3.39,1.48,6.36,3.56,2.78,2.35,5.75,4.43,2.67,2.49,5.64,4.57,3.17,1.78,6.14,3.86,3.14,1.84,6.11,3.91,2.59,2.62,5.56,4.7,3.07,1.92,6,4,3.12,1.87,6.09,4,3.11,1.88,6.07,4,2.63,2.57,5.6,4.65,2.81,2.31,5.78,4.39,3,2,6,4.1,3.05,1.95,6,4,3.34,1.56,6.31,3.64,3,2.06,6,4.14,2.46,2.8,5.43,4.88l6,4.16c3,2.08,3.16,1.8,6.13,3.88s2.91,2.17,5.88,4.24,3.24,1.7,6.21,3.78,2.57,2.65,5.54,4.72,3.06,2,6,4,2.88,2.22,5.85,4.3,3.5,1.33,6.47,3.41,2.51,2.73,5.48,4.81,2.9,2.18,5.87,4.26,3.16,1.81,6.13,3.89,3,2,6,4.06,2.79,2.34,5.77,4.42,2.56,3.27,6.11,4.06,3.56-1.12,7.12-1.75,3.59-.54,7.16-1.17,3.61-.35,7.18-1,3.63-.3,7.19-.93,3.48-1.17,7-1.8l7.14-1.25c3.57-.63,3.65-.2,7.22-.83s3.58-.53,7.15-1.16,3.56-.66,7.13-1.29,3.43-1.4,7-2,3.7.09,7.27-.54,3.43-1.38,7-2,3.61-.39,7.18-1,3.54-.77,7.11-1.4,3.7.09,7.27-.54,3.49-1,7.06-1.66,3.54-.79,7.11-1.42,3.54-.82,7.11-1.45,3.57-.59,7.14-1.22,3.65-.16,7.22-.79,3.57-.6,7.14-1.23,3.52-.94,7.09-1.57,3.58-.52,7.15-1.15l7.14-1.25c3.57-.63,3.65-.19,7.22-.82s3.58-.53,7.15-1.16,3.52-.94,7.09-1.57,3.55-.71,7.12-1.33,3.57-.66,7.14-1.29,3.58-.54,7.15-1.17,3.5-1,7.06-1.64l7.14-1.26c3.57-.63,3.68,0,7.25-.61l7.13-1.26c3.57-.63,3.45-1.35,7-2s3.69,0,7.25-.63,3.42-1.48,7-2.11,3.65-.19,7.22-.82,3.65-.12,7.22-.75,3.5-1,7.07-1.65,3.65-.21,7.22-.84,3.51-.93,7.08-1.56,3.62-.34,7.19-1,3.45-1.32,7-2,3.65-.21,7.22-.83l7.14-1.25c3.57-.63,3.51-1,7.08-1.59s3.56-.73,7.13-1.36,3.67-.06,7.24-.68l7.14-1.26c3.57-.63,3.5-1,7.07-1.65s3.58-.58,7.15-1.21,3.58-.59,7.15-1.22,3.48-1.15,7-1.78,3.66-.15,7.22-.77,3.56-.75,7.13-1.38,3.58-.61,7.15-1.24,4,.66,7.09-1.29,2.57-2.56,4.64-5.53,2-3,4.08-6,1.91-3.08,4-6,2-3,4.13-6,1.87-3.11,4-6.08,2.41-2.73,4.49-5.7,1.9-3.1,4-6.06,2.26-2.84,4.34-5.81,1.64-3.28,3.72-6.24,2.38-2.76,4.46-5.73,1.87-3.11,3.95-6.08,2.4-2.74,4.48-5.71,1.75-3.2,3.82-6.17,2.14-2.92,4.22-5.89,2.21-2.88,4.28-5.85,1.92-3.09,4-6,2.26-2.85,4.34-5.82,1.58-3.31,3.66-6.28,2.85-2.43,4.93-5.4,1.73-3.21,3.81-6.18,1.84-3.13,3.92-6.1,2.18-2.9,4.26-5.87,2.52-2.65,4.6-5.62,1.55-3.34,3.63-6.31,2.13-2.93,4.21-5.9,1.86-3.11,3.94-6.08,2.2-2.88,4.28-5.85l4.16-5.93c2.08-3,2.71-2.52,4.79-5.49s1.52-3.36,3.59-6.33,1.92-3.08,4-6l4.16-5.93c2.08-3,2.42-2.73,4.49-5.7s1.92-3.09,4-6,2.18-2.9,4.26-5.87,2.4-2.74,4.48-5.71,1.94-3.07,4-6,2-3,4.09-6,2.35-2.78,4.42-5.75,1.48-3.39,3.56-6.36,2.44-2.72,4.52-5.68,2-3.06,4-6,2.11-3,4.19-5.91,1.61-3.31,3.68-6.28,2.23-2.86,4.31-5.83,2.38-2.77,4.46-5.74,1.94-3.06,4-6,2.46-2.71,4.54-5.68,1.85-3.12,3.93-6.09,2.42-2.73,4.5-5.7,1.54-3.35,3.62-6.32,2.11-3,4.19-5.92,2.34-2.79,4.42-5.76,2.28-2.83,4.36-5.8,1.89-3.1,4-6.07,2.21-2.89,4.29-5.86,1.44-3.43,3.52-6.4,3.25-2.25,4-5.79.37-3.54-.26-7.11-1.31-3.44-1.94-7,0-3.67-.68-7.24-1.23-3.46-1.86-7-.36-3.62-1-7.18-1-3.51-1.59-7.08.07-3.69-.56-7.26-1.11-3.49-1.73-7-.2-3.65-.83-7.22-1.47-3.42-2.1-7,.08-3.7-.54-7.27-1-3.5-1.65-7.07-.61-3.57-1.24-7.14-.62-3.57-1.25-7.14-.29-3.62-.92-7.19-1.07-3.49-1.7-7.06-.16-3.65-.79-7.22-1.26-3.46-1.89-7-.55-3.58-1.18-7.15-.1-3.66-.73-7.23-.85-3.53-1.48-7.1-1.11-3.48-1.73-7,.21-3.72-.42-7.29-1.5-3.42-2.13-7-.34-3.61-1-7.18-.84-3.53-1.47-7.1-.12-3.66-.75-7.23-.26-3.64-.89-7.21-.58-3.58-1.2-7.14-1.17-3.48-1.8-7.05-.82-3.53-1.45-7.09-.52-3.59-1.15-7.16-.92-3.52-1.55-7.09.26-3.72-.37-7.29-1.5-3.41-2.13-7-.36-3.62-1-7.19-.19-3.64-.82-7.21-1.13-3.48-1.76-7,0-3.69-.59-7.26-1.52-3.41-2.15-7,.29-3.73-.33-7.3-1.11-3.48-1.74-7-1-3.51-1.62-7.08.12-3.7-.51-7.27-1.25-3.46-1.88-7-.5-3.6-1.12-7.17-.56-3.58-1.19-7.15-.56-3.58-1.19-7.16-.56-3.58-1.19-7.15-.6-3.57-1.23-7.14-.73-3.56-1.36-7.13-.86-3.53-1.49-7.1-.79-3.54-1.42-7.11-.32-3.63-1-7.2-.73-3.55-1.36-7.12-.76-3.55-1.39-7.12-.1-3.67-.73-7.25.21-3.91-1.74-7-2.88-2-5.85-4.12-3.15-1.82-6.12-3.9-2.6-2.61-5.57-4.68-3-2-6-4-3-2-6-4.06-3.07-1.93-6-4-2.75-2.39-5.72-4.47-3-2-6-4-2.65-2.53-5.62-4.61-3.54-1.25-6.51-3.33l-5.93-4.16c-3-2.08-2.84-2.28-5.8-4.35s-2.88-2.22-5.84-4.3-3.12-1.86-6.09-3.94-2.79-2.33-5.76-4.41-3.23-1.71-6.19-3.79-2.44-2.84-5.41-4.91-3.32-1.58-6.29-3.66S1091,405,1088,402.88s-3.21-1.74-6.18-3.82-2.86-2.23-5.83-4.31-3-2.06-6-4.14-3.22-1.71-6.19-3.79-2.77-2.37-5.74-4.45-3-2-6-4-2.67-2.5-5.64-4.57-3.24-1.68-6.21-3.76-3-2-6-4.06-2.84-2.26-5.81-4.34-3.15-1.82-6.12-3.9-2.54-2.68-5.51-4.76-3-2-6-4.11-3.4-1.46-6.37-3.54-2.58-2.64-5.54-4.72-3.36-1.53-6.32-3.61-3.13-1.86-6.1-3.94-2.78-2.34-5.75-4.42-3-2-6-4.06-2.77-2.37-5.74-4.45-3-2-6-4.13-2.93-2.13-5.9-4.21-2.81-2.31-5.78-4.39-3.36-1.51-6.33-3.59-2.63-2.57-5.6-4.65-3.16-1.81-6.13-3.89-3.19-1.76-6.16-3.84-2.94-2.13-5.91-4.21-2.58-2.63-5.55-4.71-3-2-6-4.1-2.84-2.26-5.81-4.34-3.37-1.5-6.34-3.58-2.63-2.57-5.6-4.65-3.12-1.86-6.09-3.94-2.89-2.21-5.86-4.29-2.78-2.36-5.75-4.44-3.34-1.54-6.31-3.62-3.35-1.65-6.11-4S859.65,242.19,856.1,241.41Z"/></g></g><g id="SAGETEXT"><path id="S" d="M500.23,660.79q18.32,195.72-65,222-38.09,12-90.15-31-48.29-40.49-89.24-111.14L315.2,681q12.24,17.51,33.21,29.46t34.91,7.56q14.28-4.5,23.29-22.19L150.54,400.55q-13.83-185,66.43-210.34,38.09-12,90.15,31,48.27,40.5,89.24,111.15L337,391.93q-12.24-17.49-33.21-29.46t-34.91-7.57q-12.24,3.86-19.78,15.52Z"/><path id="A" d="M786.43,1045.47l-77.42,7L685.85,978.3l-101.21,9.13-9.87,77.14-77.41,7,84.55-677.92Zm-150.71-226-21.64-69.27-8.9,72Z"/><path id="G" d="M1020.77,382.71q-14.06,145.64-66.67,245.36T841.15,722q-60.35-5.84-92.95-113.35t-18.46-254Q743.8,209,796.59,109.27T909.36,15.35q63.52,6.14,95.77,124.92l-66.9,91.83q-16.71-46-45.09-48.71-31.59-3-59.19,49.08T799,361.3q-7.41,76.69,9.71,133.14t48.71,59.5q27.69,2.67,53.14-38.36l-38.33-3.7,16.22-168,134.87,13Z"/><path id="E" d="M1179.48,876.34,956.54,813l184-647.25,222.93,63.38-46,161.81-156.06-44.37-23.12,81.33,104.61,29.74-46,161.81-104.61-29.74-22.88,80.49,156,44.37Z"/></g><g id="_2021" data-name="2021"><path id="_2" data-name="2" d="M873.35,855.43l5.8,27.05-98.76,21.2,38.48-65.37c5.49-9.36,10-21.92,7.54-33.16-1.68-7.82-9-14.78-17.44-13-8.64,1.86-11.93,9.56-10.15,17.87a30.57,30.57,0,0,0,1.61,5.11l-35.21,7.55c-5.07-28.4,8.76-51.32,37.78-57.55,25.75-5.52,51.06,6.78,56.8,33.5,3.78,17.61-1.35,29.45-11.46,43.55l-15.25,21.86Z"/><path id="_1" data-name="1" d="M995.78,962.49c-7,35.39-31.79,70.06-72.4,62s-50.18-49.6-43.13-85,32-70,72.41-62S1002.83,927.11,995.78,962.49Zm-80.29-16.18c-2.63,13.18-4.12,43.28,14.11,46.92s28.39-24.75,31-37.93,4-42.92-14.19-46.56S918.11,933.13,915.49,946.31Z"/><path id="_2-2" data-name="2" d="M1096.42,1152.34l-14.93,38.16L942.18,1136l100.94-49.31c14.43-7.08,30.2-18.93,36.4-34.8,4.32-11,1-25.58-11-30.26-12.19-4.77-22.54,2-27.13,13.78a43.6,43.6,0,0,0-2.18,7.62l-49.66-19.42c16.94-39.23,52.75-56.24,93.67-40.23,36.32,14.21,57.54,50.08,42.79,87.78-9.71,24.83-25.72,35.26-49.72,44.43l-36.7,14.53Z"/><path id="_1-2" data-name="1" d="M1159.39,1122.27l24.34-57.54,105.38,44.59-110.6,261.36-67.94-28.75,86.25-203.82Z"/></g><g id="THE"><path id="T" d="M545.38,394l-13.21,2.11-6.32-39.64-10.92,1.74L513.14,347l35.06-5.59L550,352.6l-10.92,1.74Z"/><path id="H" d="M590,338V318.15h13.38v51.47H590V348.53H570.7v21.09H557.32V318.15H570.7V338Z"/><path id="E-2" data-name="E" d="M629.07,355.35l-2.1,8.34,14.62,3.68-2.76,11-14.63-3.69L622,383.28l15.43,3.88-2.77,11L606.29,391l12.57-49.91,28.4,7.15-2.77,11Z"/></g><g id="SAGE"><polygon class="cls-1" points="270.85 571.79 1124.46 462.36 1137.03 560.45 264.06 672.36 254.21 595.54 270.85 571.79"/><rect x="264.26" y="527.36" width="860" height="80" transform="translate(-66.51 92.89) rotate(-7.31)"/><path class="cls-3" d="M295.32,627.77a24.23,24.23,0,0,0,5.51,4.74,8.1,8.1,0,0,0,4.93,1.17,4.76,4.76,0,0,0,3.39-2,5.49,5.49,0,0,0,.93-4.05,6.33,6.33,0,0,0-1.69-3.86c-1-.81-2.93-1.53-5.93-2.16q-6.12-1.3-9-4.25t-3.62-8.77q-1-7.44,2.3-12.62a12.29,12.29,0,0,1,9.36-6,16.36,16.36,0,0,1,6.45.36,19.85,19.85,0,0,1,6.07,2.76l-2.13,10.62a14.21,14.21,0,0,0-4.23-2.63,8.36,8.36,0,0,0-4-.54,4.47,4.47,0,0,0-3,1.66,4.13,4.13,0,0,0-.83,3.28,4.65,4.65,0,0,0,1.47,3,11,11,0,0,0,4.5,1.69l.2,0,.26.06q7,1.44,9.49,4a13.66,13.66,0,0,1,2.78,4.29,23.22,23.22,0,0,1,1.47,5.87q1.06,8.24-2.49,13.84A14,14,0,0,1,307,644.73a15.92,15.92,0,0,1-7.87-.83,22.76,22.76,0,0,1-7.36-5Z"/><path class="cls-3" d="M360.57,610.17a34.94,34.94,0,0,1-.21,10.74,28.27,28.27,0,0,1-3.54,9.32,22.16,22.16,0,0,1-6.26,6.79,17.22,17.22,0,0,1-16.37,2.1,21.14,21.14,0,0,1-7.71-5,27.85,27.85,0,0,1-5.79-8.2A34.48,34.48,0,0,1,318,605a27.74,27.74,0,0,1,3.53-9.39,21.29,21.29,0,0,1,6.19-6.85,17.37,17.37,0,0,1,7.93-3.07,17.61,17.61,0,0,1,8.5,1,21.76,21.76,0,0,1,7.71,5.05,29,29,0,0,1,5.8,8.2A34.92,34.92,0,0,1,360.57,610.17Zm-19.48,18q4.53-.57,7-5.33a15.27,15.27,0,0,0,1.59-5.14,23.41,23.41,0,0,0-.06-6.13,19.05,19.05,0,0,0-4.38-10.5q-3.6-4-8.07-3.4t-7,5.33a19.17,19.17,0,0,0-1.57,11.27q.87,6.76,4.31,10.58T341.09,628.17Z"/><path class="cls-3" d="M365.12,635.87l-6.66-51.93L369,582.59l18.58,24.77c.48.68,1.1,1.72,1.88,3.11,1,1.8,2,3.65,2.94,5.57-.62-2.68-1-4.57-1.2-5.65-.33-1.69-.57-3.18-.74-4.48l-3.29-25.65,10.5-1.34,6.65,51.93-10.49,1.34-18.59-24.87c-.27-.35-.9-1.4-1.88-3.15q-1.28-2.14-2.93-5.47.63,2.74,1.26,5.68c.35,2.22.58,3.71.68,4.49l3.29,25.65Z"/><path class="cls-3" d="M407.6,630.43l-6.66-51.93L412,577.08,418.64,629Z"/><path class="cls-3" d="M444.53,575l2,15.46a20.66,20.66,0,0,0-5.05-4.22,9,9,0,0,0-12.12,4.29,15.57,15.57,0,0,0-1.25,3.32,17.87,17.87,0,0,0-.48,3.77,28,28,0,0,0,.22,4.18,17.54,17.54,0,0,0,4.29,10,9.15,9.15,0,0,0,8.11,3.11,8.83,8.83,0,0,0,4.63-2.15,18.21,18.21,0,0,0,3.83-5.32l2,15.5a21.91,21.91,0,0,1-4.87,3.11,17.92,17.92,0,0,1-5.1,1.49,18.37,18.37,0,0,1-6.21-.24,15,15,0,0,1-5.49-2.41,26.11,26.11,0,0,1-8.09-8.91,37,37,0,0,1-4.06-13.08,36.36,36.36,0,0,1,.15-11,26.58,26.58,0,0,1,1.16-4.71,30.3,30.3,0,0,1,2.16-4.73,19.17,19.17,0,0,1,5.73-6.5,16.8,16.8,0,0,1,7.68-2.9,19,19,0,0,1,5.3.12A24.91,24.91,0,0,1,444.53,575Z"/><path class="cls-3" d="M458,598.24a9.92,9.92,0,0,1,1.12-6.42,5.87,5.87,0,0,1,4.45-3.11,6,6,0,0,1,5.21,1.87A11.13,11.13,0,0,1,470.32,603a6.13,6.13,0,0,1-4.55,3.17,6,6,0,0,1-5.11-1.93A9.94,9.94,0,0,1,458,598.24Z"/><path class="cls-3" d="M482.57,620.82l7.18-53.71,13.7-1.75L524,615.51,513.1,616.9l-3.22-9-15.54,2-.89,9.56Zm12.83-21.37,10.88-1.4L500,581.45c-.13-.3-.41-1.13-.85-2.49-.52-1.59-1-3-1.41-4.33-.11,1.24-.17,2.49-.19,3.74s-.25,2.36-.32,3.43Z"/><path class="cls-3" d="M568.21,609.84,558,611.15,552.75,589q-.69-3-1.11-5.23t-1.2-6.3q0,3.75-.48,8.42c-.07.61-.11,1.14-.13,1.57l-2.34,25-7.29.94-8.57-23.64a12.32,12.32,0,0,0-.52-1.48,63.63,63.63,0,0,1-2.56-8q.27,3.93.33,5.87c0,.67.07,1.65.13,2.94s.09,2.28.12,2.94l.52,22.76-10.16,1.3L519,563.36,529.85,562l9.49,26c.17.48.28.79.34.93a47.19,47.19,0,0,1,1.85,6c0-.64,0-1.7,0-3.17,0-.37.13-1.74.31-4.12l2.69-27.49,10.85-1.39Z"/><path class="cls-3" d="M563.78,610.41,571,556.7l13.7-1.75,20.52,50.15-10.88,1.39-3.22-9-15.53,2-.9,9.56ZM576.61,589l10.87-1.4L581.21,571c-.14-.3-.42-1.13-.85-2.49-.52-1.59-1-3-1.42-4.33-.1,1.24-.16,2.49-.19,3.74s-.24,2.36-.31,3.43Z"/><path class="cls-3" d="M609.19,604.58l-5.09-39.65-9,1.15-1.58-12.27,28.91-3.71L624,562.37l-9,1.16,5.08,39.65Z"/><path class="cls-3" d="M628.84,602.06l-6.66-51.92L646.76,547l1.47,11.43-13.92,1.78,1.15,9,13.12-1.68L650,578.65l-13.12,1.69,1.12,8.72,13.92-1.78,1.49,11.63Z"/><path class="cls-3" d="M648.11,546.81l10.93-1.4,3.24,25.25c.5,3.86.91,6.52,1.25,8a19.82,19.82,0,0,0,1.26,4,4.86,4.86,0,0,0,2.54,2.7,7.25,7.25,0,0,0,7.65-1,5.63,5.63,0,0,0,1.81-3.26,22.74,22.74,0,0,0,.19-4.13,80.07,80.07,0,0,0-.78-8l-.45-3.55L673,543.63l10.88-1.4,3.52,27.45a72.93,72.93,0,0,1,.82,12.66,18.44,18.44,0,0,1-1.79,7.33,12.6,12.6,0,0,1-5.07,5.45,21.13,21.13,0,0,1-8.48,2.71,20.91,20.91,0,0,1-8.92-.48,13,13,0,0,1-6.26-4,19,19,0,0,1-3.57-6.65,68.53,68.53,0,0,1-2.46-12.44l-.69-5.4Z"/><path class="cls-3" d="M693.16,593.82l-6.65-51.93L698,540.42q3.31-.42,5.63-.54a19.17,19.17,0,0,1,3.85.12,11.43,11.43,0,0,1,4.9,2.11,13.5,13.5,0,0,1,4,5,21.06,21.06,0,0,1,2.11,7.08,19.09,19.09,0,0,1-1,10.12,10.64,10.64,0,0,1-6,5.86L725,589.74l-12.35,1.58-11.82-19.14,2.61,20.32Zm6.77-28.7,2-.26q3.59-.47,5-2.19a7,7,0,0,0,1-5.14q-.49-3.9-2.21-5.34t-5.34-1l-2.19.28Z"/><path class="cls-3" d="M730,563.36a9.85,9.85,0,0,1,1.11-6.42,5.9,5.9,0,0,1,4.46-3.11,6,6,0,0,1,5.2,1.88,11.08,11.08,0,0,1,1.59,12.38,6.13,6.13,0,0,1-4.55,3.17,6,6,0,0,1-5.11-1.93A9.94,9.94,0,0,1,730,563.36Z"/><path class="cls-3" d="M776,563.77l-1.39-10.89,21.48-2.76a9.83,9.83,0,0,0,.2,1.17l.25,1.88q1.71,13.44-2.76,21.48T779.29,584a18.33,18.33,0,0,1-16.43-5.72,28.27,28.27,0,0,1-5.54-8.23,36.22,36.22,0,0,1-1.89-5.18,37.82,37.82,0,0,1-1.06-5.29,35.87,35.87,0,0,1,.16-10.88,29.21,29.21,0,0,1,3.45-9.38,19.94,19.94,0,0,1,6.16-6.63,18.83,18.83,0,0,1,8.18-3,18.84,18.84,0,0,1,13.95,3.64,22.93,22.93,0,0,1,3,2.69,29.87,29.87,0,0,1,2.64,3.34l-8.73,7.11a13.46,13.46,0,0,0-4.39-4,8.4,8.4,0,0,0-4.95-.84,8.79,8.79,0,0,0-7.16,5.21q-2.26,4.54-1.31,11.95t4.3,11.35a8.78,8.78,0,0,0,8.24,3.23,9.59,9.59,0,0,0,6.59-3.58,10.65,10.65,0,0,0,2.36-7.41Z"/><path class="cls-3" d="M796.33,580.59l7.18-53.7,13.7-1.76,20.53,50.15-10.88,1.4-3.22-9-15.54,2-.89,9.56Zm12.83-21.36,10.88-1.4-6.28-16.61c-.13-.29-.41-1.12-.85-2.48l-1.41-4.33c-.1,1.24-.17,2.49-.19,3.74s-.25,2.36-.32,3.43Z"/><path class="cls-3" d="M882,569.61l-10.22,1.31-5.24-22.15c-.45-2-.83-3.72-1.11-5.23s-.72-3.57-1.2-6.3c0,2.51-.17,5.31-.48,8.43-.07.61-.11,1.13-.13,1.57l-2.34,25-7.29.93-8.57-23.63a12.32,12.32,0,0,0-.52-1.48,64.66,64.66,0,0,1-2.56-8q.27,3.93.33,5.87c0,.67.07,1.65.13,2.94s.09,2.27.12,2.94l.53,22.76-10.17,1.3-.47-52.72,10.83-1.39,9.49,26c.17.49.28.8.34.93a47.81,47.81,0,0,1,1.85,6c0-.65,0-1.7,0-3.18,0-.36.13-1.73.31-4.11l2.69-27.49,10.85-1.4Z"/><path class="cls-3" d="M882.25,569.58l-6.66-51.93,24.58-3.15,1.47,11.42-13.92,1.78,1.15,9L902,535l1.43,11.18-13.12,1.68,1.12,8.73,13.92-1.79,1.49,11.64Z"/><path class="cls-3" d="M908.08,549.21a23.51,23.51,0,0,0,5.5,4.74,8,8,0,0,0,4.93,1.17,4.71,4.71,0,0,0,3.39-2,5.49,5.49,0,0,0,.93-4,6.27,6.27,0,0,0-1.69-3.86q-1.44-1.22-5.92-2.16-6.12-1.3-9-4.26t-3.62-8.76q-1-7.45,2.3-12.63a12.25,12.25,0,0,1,9.36-6,16.36,16.36,0,0,1,6.45.36,20.11,20.11,0,0,1,6.08,2.75l-2.13,10.62a14.58,14.58,0,0,0-4.24-2.63,8.47,8.47,0,0,0-4-.53,4.48,4.48,0,0,0-3,1.65,4.14,4.14,0,0,0-.83,3.28,4.65,4.65,0,0,0,1.47,3,11.08,11.08,0,0,0,4.5,1.69l.2,0a.9.9,0,0,1,.26.06q7,1.44,9.49,4a13.83,13.83,0,0,1,2.78,4.3,22.7,22.7,0,0,1,1.47,5.87q1.07,8.22-2.48,13.83a14,14,0,0,1-10.54,6.44,16,16,0,0,1-7.87-.83,23,23,0,0,1-7.36-5Z"/><path class="cls-3" d="M941.93,536.19a9.82,9.82,0,0,1,1.11-6.41,5.94,5.94,0,0,1,4.46-3.12,6,6,0,0,1,5.2,1.88,11.1,11.1,0,0,1,1.59,12.39,6.13,6.13,0,0,1-4.55,3.17,6.05,6.05,0,0,1-5.11-1.94A9.89,9.89,0,0,1,941.93,536.19Z"/><path class="cls-3" d="M971.25,558.17l-6.66-51.93,24.58-3.15,1.47,11.42-13.92,1.78,1.15,9L991,523.58l1.44,11.18-13.13,1.68,1.12,8.73,13.92-1.79L995.83,555Z"/><path class="cls-3" d="M1006.55,513.12a.21.21,0,0,1,.07.13,24.27,24.27,0,0,1,1.82,4,17.22,17.22,0,0,1,.74-4,1.17,1.17,0,0,1,.11-.44l3.27-12.68,13-1.67-10.19,26.69,18.27,25.06-12.4,1.59-8.82-14.52-.66-1.18c-.24-.45-.39-.73-.46-.84-.18-.38-.46-1.08-.83-2.09a20.6,20.6,0,0,1-.27,2.41c-.06.3-.23,1-.52,2.05l-4.87,16.27-12.41,1.59,11.38-29.14-16.61-23,13-1.66Z"/><path class="cls-3" d="M1041.71,549.13l-10.27,1.32-6.66-51.93,11.44-1.46a37.29,37.29,0,0,1,9.58-.37,10.93,10.93,0,0,1,5,2.33,16.12,16.12,0,0,1,4.12,5.45,28.5,28.5,0,0,1,2.07,16.14,13.49,13.49,0,0,1-2.62,6.25,9.59,9.59,0,0,1-3.72,3,25,25,0,0,1-7.25,1.69l-1.86.24-2,.25Zm-3.66-28.55,2.09-.27q3.88-.49,5.32-2.16t1-4.91c-.27-2.16-1-3.63-2.11-4.44s-3-1-5.62-.7l-2.19.28Z"/><path class="cls-3" d="M1099.29,515.47a34.87,34.87,0,0,1-.21,10.73,28.24,28.24,0,0,1-3.54,9.33,22.09,22.09,0,0,1-6.25,6.78,18.23,18.23,0,0,1-7.92,3.15,17.93,17.93,0,0,1-8.46-1.05,21.11,21.11,0,0,1-7.71-5,28,28,0,0,1-5.78-8.2,34.31,34.31,0,0,1-2.68-20.93,27.73,27.73,0,0,1,3.52-9.39,21.21,21.21,0,0,1,6.2-6.85,17.46,17.46,0,0,1,7.92-3.08,17.66,17.66,0,0,1,8.51,1,21.59,21.59,0,0,1,7.7,5.05,29,29,0,0,1,5.8,8.2A34.32,34.32,0,0,1,1099.29,515.47Zm-19.47,18q4.52-.59,7-5.33a15.49,15.49,0,0,0,1.6-5.15,24.23,24.23,0,0,0-.06-6.12,19.2,19.2,0,0,0-4.38-10.51c-2.41-2.64-5.09-3.78-8.07-3.4s-5.38,2.17-7,5.33a19.12,19.12,0,0,0-1.56,11.27q.87,6.78,4.31,10.59T1079.82,533.47Z"/></g><g id="ExpressYLTOTHEWS"><rect x="170.68" y="1106.27" width="654.81" height="330.38" transform="translate(-153.72 71.52) rotate(-7.12)"/><path class="cls-3" d="M249.35,1163.82l2,16.29-20,2.5,4,31.78,20-2.49,2,16-20,2.5,6,48.07,25.72-3.21,2,16-42.8,5.34-16-128.1Z"/><path class="cls-3" d="M310.85,1156.14l9,39.42-.89-40.43,17.58-2.2-.86,48.94L352.56,1281l-17.63,2.21-10-47.74,2,48.74-17.15,2.14-3.45-80.84-12.55-47.26Z"/><path class="cls-3" d="M401.25,1144.85q11.82-1.47,16.13,3.18c1.63,1.74,2.79,5.39,3.48,10.92l4,31.79q1,7.83-1,11.32-3.06,5.4-14.56,6.84l-8.14,1,8,64L392,1276.11,376,1148Zm-2.14,49.1q5-.62,6.45-1.62c1-.66,1.34-2.22,1-4.67L404,1166.42c-.32-2.56-1-4-1.93-4.39s-3.26-.32-6.88.13Z"/><path class="cls-3" d="M484.31,1134.48q11.82-1.47,16.13,3.18,2.43,2.61,3.47,10.92l4,31.78q.74,5.91,0,8.85a9.73,9.73,0,0,1-2.8,4.81l16.5,65.91-16.9,2.08-16.27-63-3.9.5,8,64-17.41,2.17-16-128.1Zm-1.82,49.06c3.3-.42,5.39-1,6.29-1.6s1.18-2.2.87-4.65L487,1156c-.29-2.34-.82-3.76-1.58-4.26s-2.22-.62-4.35-.35l-2.55.32Z"/><path class="cls-3" d="M580.3,1122.49l2,16.29-20,2.5,4,31.78,20-2.49,2,16-20,2.5,6,48.07,25.72-3.21,2,16-42.81,5.35-16-128.1Z"/><path class="cls-3" d="M668.49,1175.23q7.71,6,10,24.38l3.16,25.24q1.3,10.55-5.66,15.79-4.44,3.31-13.39,4.43-8.62,1.08-14.66-1.74-7.92-3.7-9.26-14.41l-4-32.11,17.09-2.13,3.67,29.39c.51,4,2.14,5.89,4.91,5.55a3.48,3.48,0,0,0,2.65-1.87,7.48,7.48,0,0,0,.59-4.69l-2.61-20.9q-1-8.13-3.51-12.36A24,24,0,0,0,652,1184l-13.74-11.64a28.16,28.16,0,0,1-5.92-9.16,54.09,54.09,0,0,1-3.7-14.79l-1.9-15.17q-1.05-8.48,3.16-13.7,5.21-6.33,17.35-7.85,8-1,13.73,2.18,7.34,4.11,8.57,14l3.15,25.24-17.57,2.2-2.85-22.85a6.5,6.5,0,0,0-1.38-3.23,3.32,3.32,0,0,0-3.23-1.22,4,4,0,0,0-3.26,2.52,5.88,5.88,0,0,0-.28,3l1.6,12.78a31.55,31.55,0,0,0,3.37,11.42,18,18,0,0,0,4.57,5.43Z"/><path class="cls-3" d="M750.74,1165q7.72,6,10,24.38l3.15,25.23q1.32,10.54-5.65,15.8-4.46,3.32-13.39,4.43-8.62,1.08-14.66-1.74-7.92-3.72-9.26-14.42l-4-32.1L734,1184.4l3.67,29.39c.51,4,2.14,5.9,4.91,5.55a3.48,3.48,0,0,0,2.65-1.87,7.52,7.52,0,0,0,.59-4.69l-2.61-20.89q-1-8.13-3.51-12.36a23.93,23.93,0,0,0-5.48-5.8l-13.73-11.63a28,28,0,0,1-5.92-9.16,54.09,54.09,0,0,1-3.7-14.79L709,1123q-1.05-8.46,3.16-13.7,5.21-6.33,17.35-7.84,8-1,13.73,2.17,7.34,4.13,8.57,14l3.15,25.24-17.57,2.19-2.85-22.84a6.5,6.5,0,0,0-1.38-3.23,3.3,3.3,0,0,0-3.24-1.22,4,4,0,0,0-3.25,2.51,5.81,5.81,0,0,0-.28,3L728,1136a31.61,31.61,0,0,0,3.37,11.42,17.86,17.86,0,0,0,4.57,5.43Z"/><path class="cls-3" d="M303.25,1314.42l11.24,55.7-3.05-56.73L329,1311.2l-.3,97.69,4,31.94L314,1443.17l-4-32-23.83-94.67Z"/><path class="cls-3" d="M343.15,1310.24q4.71-3.83,13.5-4.93,9.11-1.14,14.61,1.42,7.9,3.55,9.29,14.58L392.5,1417q1.33,10.71-4.94,16.35-4.37,4-12.68,5-8.94,1.13-15.29-1.65-8.58-3.8-9.9-14.34l-11.95-95.68Q336.39,1315.79,343.15,1310.24Zm23.29,107.24a7.27,7.27,0,0,0,1.77,4.4,3.62,3.62,0,0,0,3.14,1.15,3.49,3.49,0,0,0,2.6-2,7.4,7.4,0,0,0,.64-4.62l-11.31-90.56a9.16,9.16,0,0,0-1.84-5,3.4,3.4,0,0,0-3-1.41c-2.77.34-3.86,2.81-3.29,7.38Z"/><path class="cls-3" d="M416.75,1411.2a7.33,7.33,0,0,0,1.77,4.4,3.68,3.68,0,0,0,3.14,1.15,3.49,3.49,0,0,0,2.6-2,7.4,7.4,0,0,0,.64-4.62l-13.65-109.25,17.57-2.2,14,112q1.33,10.69-4.94,16.35-4.37,4-12.67,5-9,1.13-15.3-1.66-8.58-3.8-9.9-14.33l-14-112,17.09-2.14Z"/><path class="cls-3" d="M461.57,1294.64q11.82-1.47,16.13,3.18c1.62,1.74,2.78,5.39,3.47,10.92l4,31.79q.74,5.91,0,8.84a9.67,9.67,0,0,1-2.81,4.81l16.51,65.91-16.9,2.09-16.28-63-3.89.49,8,64-17.41,2.17-16-128.09Zm-1.82,49.06c3.29-.41,5.39-1,6.28-1.6s1.19-2.2.88-4.65l-2.65-21.24c-.29-2.34-.82-3.77-1.59-4.27s-2.21-.61-4.34-.35l-2.55.32Z"/><path class="cls-3" d="M541.43,1284.67l14,112.13,20-2.5,2,16-37,4.62-16-128.1Z"/><path class="cls-3" d="M576.83,1281.06q4.71-3.82,13.5-4.93,9.1-1.14,14.61,1.42,7.9,3.56,9.28,14.57l11.95,95.68q1.33,10.71-4.93,16.35-4.38,4-12.68,5-9,1.13-15.29-1.66-8.6-3.8-9.9-14.33l-12-95.68Q570.06,1286.61,576.83,1281.06Zm23.29,107.24a7.33,7.33,0,0,0,1.76,4.4,3.69,3.69,0,0,0,3.15,1.15,3.48,3.48,0,0,0,2.59-1.95,7.33,7.33,0,0,0,.64-4.62L597,1296.71a9.22,9.22,0,0,0-1.83-5,3.44,3.44,0,0,0-3-1.41q-4.15.53-3.29,7.39Z"/><path class="cls-3" d="M646.15,1271.59l16.35-2,5,129.48-21.24,2.65L619.7,1274.9l16-2,14.88,76.81Z"/><path class="cls-3" d="M709.62,1263.67l2,16.29-20,2.49,4,31.79,20-2.5,2,16-20,2.49,6,48.08,25.71-3.22,2,16-42.81,5.34-16-128.1Z"/><path d="M195.81,1493l48-6,.83,6.63-16.75,2.09,3.42,27.36-15,1.87-3.42-27.36-16.3,2Z"/><path d="M253.65,1503.6a16.24,16.24,0,0,1,4.82-13.85q5.8-6,21.14-7.91a48.92,48.92,0,0,1,13.48.06,23.13,23.13,0,0,1,10.87,4.49,13.35,13.35,0,0,1,3.51,4.26,16.07,16.07,0,0,1,1.71,5.59,14.1,14.1,0,0,1-.75,7,17.68,17.68,0,0,1-4.31,6.17,24.41,24.41,0,0,1-8.17,5,47.78,47.78,0,0,1-11.77,2.85,52.09,52.09,0,0,1-13,.25,27.83,27.83,0,0,1-9.18-2.68,15.91,15.91,0,0,1-5.89-5l-1.58-3A12.07,12.07,0,0,1,253.65,1503.6Zm15.58-2.44.24,1.92a8,8,0,0,0,.92,2.53,11.73,11.73,0,0,0,2.5,3.14q3.21,2.88,9.89,2l.59-.07a20.11,20.11,0,0,0,2.5-.46,12.5,12.5,0,0,0,2.23-.8,10.56,10.56,0,0,0,3.5-2.78,11.17,11.17,0,0,0,1.95-8.43q-1.4-11.25-13.56-9.74l-2.07.26-1.6.44a8.5,8.5,0,0,0-2.06,1,7.81,7.81,0,0,0-3.42,2.79,13.44,13.44,0,0,0-1.55,3.88l-.11,2.06Z"/><path d="M342.69,1474.68l48-6,.83,6.63-16.75,2.09,3.42,27.36-15,1.87-3.42-27.36-16.3,2Z"/><path d="M400.05,1467.51l14.74-1.84,1.69,13.49,18.3-2.28-1.68-13.49,14.89-1.86,4.25,34-14.9,1.86-1.74-14-18.31,2.29,1.75,14-14.75,1.84Z"/><path d="M461.48,1459.84l40.83-5.1.83,6.63-25.86,3.23.87,7,23.86-3,.83,6.63-23.87,3,.9,7.14,25.86-3.23.83,6.63-40.83,5.1Z"/><path d="M538.55,1450.22l14.75-1.84,8,24.11,5.8-25.84,18.08-2.25,11,23.54,2.05-25.17,13.26-1.66-4.87,35.12-17.78,2.23-12.41-24-6.71,26.38-17.79,2.22Z"/><path d="M621.15,1457.71a16.18,16.18,0,0,1,4.82-13.85q5.79-6,21.13-7.92a49.71,49.71,0,0,1,13.48.06,23.27,23.27,0,0,1,10.88,4.49,13.49,13.49,0,0,1,3.5,4.27,16.08,16.08,0,0,1,1.71,5.58,14.2,14.2,0,0,1-.74,7,17.76,17.76,0,0,1-4.31,6.17,24.58,24.58,0,0,1-8.18,5,48.49,48.49,0,0,1-11.76,2.85,52.6,52.6,0,0,1-13,.24,27.66,27.66,0,0,1-9.18-2.67,16,16,0,0,1-5.89-5l-1.58-3A11.89,11.89,0,0,1,621.15,1457.71Zm15.57-2.45.24,1.93a8.13,8.13,0,0,0,.92,2.53,12,12,0,0,0,2.5,3.14q3.23,2.88,9.89,2.05l.59-.08a18.68,18.68,0,0,0,2.51-.45,13.74,13.74,0,0,0,2.23-.81,10.4,10.4,0,0,0,3.49-2.78,11.18,11.18,0,0,0,2-8.42q-1.41-11.26-13.56-9.74l-2.08.26-1.6.44a8.5,8.5,0,0,0-2.06,1,7.77,7.77,0,0,0-3.41,2.78,13.23,13.23,0,0,0-1.55,3.89l-.12,2.06Z"/><path d="M685.88,1431.82l23.34-2.92a59.59,59.59,0,0,1,16-.13q6.78,1,7.41,6c.31,2.54-.7,4.66-3.05,6.37a24.36,24.36,0,0,1-9.53,3.79l0,.19q6.53-.81,9.06.85c1.7,1.11,3,3.25,4.08,6.41a25.13,25.13,0,0,0,3.69,7.58l-16.15,2a28.31,28.31,0,0,1-1.61-3.81l-1.83-5.64c-.18-1.44-1.18-2.22-3-2.35a37.22,37.22,0,0,0-7.32.39l-3.49.44,1.62,12.92-15,1.87Zm15.79,4.76,1,7.8,6.89-.86q8.3-1,7.78-5.17c-.3-2.45-3.4-3.3-9.27-2.57Z"/><path d="M743.31,1424.65l15-1.87,3.41,27.35,24.16-3,.83,6.62-39.13,4.89Z"/><path d="M792.29,1418.53l22.75-2.84q15.57-1.95,23.62,1.66t9.23,13.09a11.63,11.63,0,0,1-1.5,7.52,15.73,15.73,0,0,1-6.25,5.72,56.67,56.67,0,0,1-20,5.88l-23.64,3ZM810.68,1444l7.19-.9a21.81,21.81,0,0,0,8.4-2.63,11.51,11.51,0,0,0,4.76-4.67,9.32,9.32,0,0,0,1-5.35,7.34,7.34,0,0,0-2.63-4.78,14.43,14.43,0,0,0-6.08-2.89,21.41,21.41,0,0,0-7.88-.43l-7.34.92Z"/></g><g id="Squigs"><path class="cls-4" d="M1078,916.86c5.29,2.61,5.06,3.08,10.35,5.69s5.54,2.11,10.84,4.72,5.56,2.06,10.86,4.67,4.74,3.74,10,6.35,5.35,2.5,10.64,5.11,5.76,1.67,11.06,4.28,4.85,3.51,10.15,6.12,5.18,2.84,10.47,5.45,5.59,2,10.88,4.63,5.17,2.86,10.47,5.47,5.44,2.32,10.73,4.93,5.4,2.41,10.69,5,5.44,2.32,10.74,4.93,5.35,2.51,10.65,5.12,4.66,7.35,10.34,5.75,3.81-4.58,7-9.57,3.14-5,6.29-10,2.92-5.14,6.08-10.13,2.82-5.2,6-10.19,2.84-5.18,6-10.17,3.6-4.71,6.75-9.71,2.79-5.22,5.94-10.21,3.27-4.92,6.42-9.91,3.49-4.78,6.64-9.77,2.67-5.29,5.82-10.28,3.46-4.8,6.62-9.79,3.61-4.71,6.76-9.7,2.56-5.37,5.71-10.36,3.3-4.91,6.45-9.9.54-8.32,6.22-9.92,5,2.92,10.32,5.53,5.8,1.58,11.09,4.19,5.12,3,10.41,5.58,5,3.11,10.35,5.72,5.08,3.05,10.37,5.66,5.32,2.57,10.61,5.18l10.59,5.23c5.29,2.62,5.3,2.6,10.59,5.21s5.5,2.21,10.79,4.82,5.8,1.59,11.09,4.2,4.9,3.43,10.19,6,5.68,1.83,11,4.44,4.79,3.64,10.08,6.25,5.77,1.67,11.07,4.28,5.27,2.68,10.57,5.29"/><path class="cls-2" d="M1078.49,923.8c5.29,2.61,5,3.25,10.27,5.86s5.15,2.91,10.44,5.53,5.34,2.51,10.64,5.12,5.78,1.62,11.07,4.23,5,3.14,10.33,5.75,5.32,2.56,10.62,5.17,5,3.13,10.33,5.74,5.78,1.64,11.07,4.25,5,3.25,10.27,5.86,5.17,2.87,10.47,5.48,5.27,2.66,10.56,5.27,5.5,2.19,10.8,4.81,5.1,3,10.39,5.62,5.15,2.93,10.45,5.54,5.08,5.65,10.76,4.05,3.62-4.26,6.77-9.25,3.27-4.92,6.42-9.91,2.23-5.58,5.38-10.57,3.82-4.57,7-9.56,2.91-5.14,6.06-10.14,3.59-4.72,6.74-9.71,2.14-5.63,5.29-10.62,3.63-4.69,6.78-9.68,3.07-5,6.22-10,3-5.09,6.15-10.08,4.17-4.35,7.33-9.34,1.87-5.8,5-10.8,3.42-4.82,6.57-9.81,3.74-4.63,6.9-9.63.6-8,6.28-9.59,5.29,1.85,10.58,4.46,5.51,2.17,10.8,4.78,5.13,2.95,10.43,5.56,5.39,2.4,10.69,5,5.25,2.71,10.54,5.32,5,3.24,10.28,5.85,5.66,1.88,10.95,4.49,5.19,2.84,10.48,5.45,5.06,3.08,10.36,5.69,5.37,2.45,10.66,5.06,5.55,2.1,10.85,4.71,4.85,3.52,10.14,6.14,5.34,2.52,10.64,5.13,5.07,3.07,10.37,5.69,5.34,2.53,10.64,5.14"/><path class="cls-5" d="M868.85,1115.52c3.28,5,3.31,4.94,6.6,9.9s3.44,4.86,6.72,9.82,3,5.18,6.25,10.14,3.22,5,6.5,10,3.36,4.92,6.64,9.88,3.47,4.84,6.75,9.8,3.51,4.82,6.8,9.78,3.43,4.87,6.71,9.83,2.8,5.29,6.09,10.25,3.27,5,6.55,9.94,3.75,4.65,7,9.61,2.89,5.23,6.18,10.19,3.52,4.81,6.81,9.77,3.22,5,6.5,10,3.51,4.81,6.79,9.78,3,5.14,6.29,10.11,3,5.14,6.31,10.1,3.55,4.79,6.84,9.76,3.58,4.77,6.87,9.73,3.37,4.91,6.66,9.88,3.25,5,6.54,10"/><path class="cls-5" d="M1034.34,1365.06c-5.39,3.56-5.77,3.82-12.21,4.22s-6.85.16-12.64-2.7-6.19-3.07-9.77-8.45-3.57-5.84-4-12.3-.35-6.85,2.5-12.65,3.11-6.16,8.51-9.75,5.81-3.77,12.29-4.17,6.94-.36,12.74,2.55,6.15,3.22,9.74,8.63,3.68,5.85,4.06,12.33-.74,6.48-2.69,12.66S1039.72,1361.5,1034.34,1365.06Z"/><path class="cls-2" d="M864.32,1113.68c3.29,5,3.61,4.75,6.89,9.71l6.58,9.92c3.29,5,3,5.14,6.3,10.1s3.3,4.95,6.58,9.91,3.6,4.76,6.88,9.72,3.3,5,6.58,9.92,3.5,4.82,6.79,9.78,2.9,5.22,6.19,10.18,3.58,4.77,6.86,9.73,3.18,5,6.47,10,3.3,4.95,6.59,9.91,3.38,4.9,6.67,9.86l6.57,9.94c3.28,5,2.74,5.32,6,10.28s3.79,4.63,7.08,9.59,2.83,5.26,6.12,10.22,3.9,4.56,7.19,9.52,3,5.12,6.34,10.09,3.43,4.87,6.72,9.83,3.2,5,6.49,10,3.27,5,6.56,9.94"/><path class="cls-2" d="M1030,1363.21c-5.41,3.55-5.82,3.73-12.28,4.1s-6.86.22-12.65-2.62-6.21-3.08-9.8-8.47-3.7-5.84-4.1-12.31-.36-6.94,2.52-12.75,3.28-6.06,8.69-9.63,5.8-3.71,12.27-4.07,6.84-.23,12.62,2.67,6,3.16,9.62,8.52,3.89,5.72,4.31,12.18-.76,6.48-2.67,12.67S1035.44,1359.65,1030,1363.21Z"/><g id="BLUE"><path class="cls-6" d="M142.32,807.11c4,1.26,7.93,1.95,10.74,4.1,3.1,2.39,4.6,6.19,6.65,9.36s4.73,6,6.15,9.66,1.9,7.39,3.09,11,2.94,7.06,4.31,10.56a55.88,55.88,0,0,0,5.24,10c2.05,3.18,3.65,6.73,6.75,9.11a32.76,32.76,0,0,0,10.14,5.44c4,1.26,7.87.94,11.4.79a32.3,32.3,0,0,0,10.89-2.76,56.51,56.51,0,0,0,10.16-5c3.13-2.08,5.87-4.79,8.93-7.1s6.11-4.68,9.25-6.75A58.69,58.69,0,0,1,256.14,850c3.5-1.43,7.43-1.41,11.34-1.58,3.53-.16,7.37-.44,11.36.81s6.72,4,9.52,6.18c3.1,2.39,6.2,4.54,8.25,7.72a58.15,58.15,0,0,1,5.21,10.19c1.37,3.5,1.46,7.52,2.65,11.16s2.79,7.17,4.17,10.67a58.06,58.06,0,0,0,5.51,10c2.05,3.17,4,6.67,7.08,9.06a33.93,33.93,0,0,0,10.35,5.28,33.15,33.15,0,0,0,11.49,1.38,33.94,33.94,0,0,0,11.18-2.71,58.87,58.87,0,0,0,9.93-5.7c3.14-2.07,6-4.7,9-7s6.08-4.7,9.21-6.78,7-3.07,10.49-4.48,6.91-2.76,10.82-2.94A31.7,31.7,0,0,1,415,892.45a32.93,32.93,0,0,1,10.22,5.09,33.79,33.79,0,0,1,7.89,8.36c2,3.14,3,7,4.38,10.57s3.25,6.9,4.44,10.54,2.54,7.19,3.91,10.69a56.8,56.8,0,0,0,5,10.09,32.06,32.06,0,0,0,7.34,8.44c2.8,2.16,5.64,5,9.63,6.24a33,33,0,0,0,11.5,1.26c3.91-.18,7.45-1.79,10.95-3.22a56.94,56.94,0,0,0,10.21-5c3.14-2.08,6.31-4.25,9.37-6.55s6.12-4.56,9.26-6.64,6.28-4.46,9.75-5.87a33.31,33.31,0,0,1,11.11-2.3A32.07,32.07,0,0,1,551.07,936c4,1.25,7.43,2.61,10.23,4.77,3.1,2.38,6.14,4.86,8.19,8a59.48,59.48,0,0,1,5,10.37c1.37,3.5,2.51,7.19,3.7,10.83s1.25,7.69,2.62,11.19a58.42,58.42,0,0,0,5.53,10.08c2,3.17,4.29,6.47,7.39,8.85,2.8,2.16,6.51,3.53,10.5,4.79"/><path class="cls-2" d="M139.29,812.63c4,1.26,7.55,2.42,10.35,4.58a33.26,33.26,0,0,1,7.57,8.51,58.29,58.29,0,0,1,5.25,10.15c1.37,3.5,2.42,7.2,3.6,10.84s1.9,7.47,3.27,11,3.89,6.61,5.92,9.76a31.88,31.88,0,0,0,7.6,8.14,30.77,30.77,0,0,0,9.84,5.22c4,1.26,7.57,2.65,11.1,2.49A33.85,33.85,0,0,0,215,880.7c3.47-1.41,6.44-3.94,9.67-6.08s6.3-4.22,9.35-6.52,6.67-3.79,9.81-5.87a56.11,56.11,0,0,1,9.79-5.54,31.49,31.49,0,0,1,10.86-2.38c3.52-.16,7.18-.34,11.17.92a31.75,31.75,0,0,1,10,5.3,32.64,32.64,0,0,1,7.63,8.3c2,3.14,4.46,6.23,5.87,9.84s1.77,7.44,2.95,11.08,2,7.42,3.41,10.92,3.67,6.78,5.7,9.93a28.27,28.27,0,0,0,17.62,13.61c4,1.26,7.67,1.06,11.2.9a32.19,32.19,0,0,0,11-2,57.32,57.32,0,0,0,9.92-5.5c3.14-2.08,6.45-4,9.5-6.33s6.05-4.69,9.18-6.77,6.17-4.93,9.63-6.35a34.71,34.71,0,0,1,11.4-2.19c3.53-.16,7.24.93,11.23,2.18s6.83,3.59,9.63,5.75c3.1,2.38,6.65,4.2,8.7,7.38s2.54,7.18,4,10.78,2.29,7.19,3.48,10.83,2.7,7.21,4.08,10.7,3.67,6.78,5.7,9.93,4,6.61,7.1,9a33.77,33.77,0,0,0,10.38,5c4,1.25,7.8,1,11.33.8a33,33,0,0,0,11.13-2c3.46-1.41,6.33-4,9.56-6.15s6.57-3.8,9.63-6.1,5.71-5.24,8.84-7.31,7.08-3.13,10.55-4.54a32.26,32.26,0,0,1,11-2.42c3.53-.16,7.38-.51,11.37.74a33.43,33.43,0,0,1,10.35,5.15,34.17,34.17,0,0,1,7.68,8.62c2,3.15,2.66,7.1,4.08,10.71s2.72,7.05,3.91,10.69,3.28,6.95,4.66,10.45,2.06,7.56,4.09,10.7a33.77,33.77,0,0,0,7.94,8.3c2.8,2.16,6.48,3,10.47,4.27"/></g><g id="YELLOW-2" data-name="YELLOW"><path class="cls-7" d="M375.92,272.57a111.43,111.43,0,0,1,5-10.93c1.6-3,3.5-6.6,5.83-10.52,1.87-3.16,3.81-6.71,6.18-10.33,2.07-3.16,5.18-5.9,7.64-9.33,2.23-3.11,4.87-6.12,7.43-9.4,2.4-3.05,4.08-6.85,6.76-10,2.53-3,5.56-5.65,8.36-8.65s5.39-5.81,8.31-8.67,5.88-5.34,8.92-8.06,6.23-4.9,9.39-7.47,5.69-5.63,9-8,6.29-4.94,9.68-7.18,6.82-4.15,10.31-6.21,7.37-3.12,11-5,6.75-4.31,10.44-6,7.24-3.37,11-4.86,7.41-3,11.26-4.28,7.87-1.49,11.78-2.58,7.52-2.7,11.49-3.59,7.92-.95,11.92-1.64,8-1,12-1.45,8-2.12,11.91-2.39,8.14,0,12.11-.06,8.08.83,12.06,1,8.17-.78,12.13-.41,8,1.35,12,1.91,7.85,2.07,11.75,2.84,8.11.84,12,1.8,7.67,2.68,11.46,3.83,7.81,2.19,11.54,3.52,7.88,2.17,11.53,3.67c3.81,1.57,7.61,3,11.18,4.65,3.74,1.74,6.9,4.48,10.37,6.29,3.68,1.92,7.64,3.09,11,5,3.62,2.09,6.79,4.65,10.05,6.73,3.57,2.29,7.26,4.06,10.37,6.25,3.55,2.49,6.4,5.46,9.32,7.72,3.63,2.8,7.34,4.69,10,6.93a82.83,82.83,0,0,1,8.4,8.72"/><path class="cls-8" d="M372.26,267A86.67,86.67,0,0,1,377,256c1.6-3,3.63-6.5,6-10.43,1.88-3.15,3.87-6.65,6.23-10.27,2.08-3.16,4.45-6.4,6.91-9.83,2.24-3.12,5-6.06,7.55-9.34,2.39-3,4.29-6.68,7-9.81,2.53-3,5.1-6.08,7.91-9.08s5.59-5.65,8.51-8.51,6.29-4.9,9.33-7.61,6-5.24,9.12-7.8,5.86-5.42,9.13-7.83,6.57-4.5,10-6.74,7.12-3.58,10.62-5.65,6.8-4.07,10.4-6,7.11-3.5,10.8-5.19,7.05-3.7,10.82-5.19,7.49-2.68,11.33-4,7.55-2.5,11.46-3.59,7.52-2.77,11.48-3.65,7.94-.93,11.94-1.61,8-.95,12-1.42,8-1.43,12-1.69,8.11-.19,12.08-.24,8.11-.18,12.08,0,8.15-.13,12.1.23,8,1.3,12,1.87,8,1.19,11.93,2,7.86,2,11.71,3,7.87,2,11.66,3.12,8,1.68,11.75,3,7.53,3.16,11.18,4.66,7.28,3.68,10.85,5.34c3.74,1.75,7.06,4.09,10.54,5.9,3.68,1.92,7.83,2.73,11.2,4.68,3.62,2.1,6.51,5.12,9.76,7.2,3.58,2.28,6.78,4.71,9.89,6.9,3.55,2.49,6.95,4.65,9.87,6.91,3.63,2.79,7.13,4.91,9.75,7.14a89.6,89.6,0,0,1,8.46,8.6"/></g></g></g></svg>